<svg width="91" height="64" viewBox="0 0 91 64" fill="none" xmlns="http://www.w3.org/2000/svg">
<path d="M20.928 17.448C21.248 17.448 21.408 17.8107 21.408 18.536C21.408 20.0507 20.704 21.5227 19.296 22.952C17.888 24.36 16.1707 25.0747 14.144 25.096C12.7147 25.096 11.0613 24.5307 9.184 23.4C7.84 24.8293 6.16533 25.544 4.16 25.544C2.83733 25.544 1.86667 25.2133 1.248 24.552C0.629333 23.8907 0.32 23.016 0.32 21.928C0.32 20.84 0.714667 20.0293 1.504 19.496C2.31467 18.9413 3.33867 18.664 4.576 18.664C5.23733 18.664 5.856 18.696 6.432 18.76C6.432 16.1573 6.72 13.6187 7.296 11.144C6.592 10.7813 5.984 10.376 5.472 9.928C4.98133 9.48 4.736 9.128 4.736 8.872C4.736 8.18933 4.88533 7.848 5.184 7.848C5.61067 7.848 6.048 7.976 6.496 8.232C6.96533 8.46667 7.46667 8.648 8 8.776C9.32267 4.95733 11.136 2.49333 13.44 1.384C14.2507 0.999999 15.104 0.807999 16 0.807999C19.3707 0.807999 21.056 2.22667 21.056 5.064C21.056 6.68533 20.448 8.08267 19.232 9.256C17.5467 10.8773 14.9867 11.7307 11.552 11.816C11.3173 13.608 11.2 15.7307 11.2 18.184C11.2 18.7813 11.1253 19.4533 10.976 20.2C11.7227 20.584 12.448 20.936 13.152 21.256C13.856 21.576 14.72 21.736 15.744 21.736C16.2773 21.736 16.8 21.512 17.312 21.064C17.8453 20.616 18.336 20.1253 18.784 19.592C19.2533 19.0587 19.6693 18.568 20.032 18.12C20.3947 17.672 20.6933 17.448 20.928 17.448ZM15.936 3.944C14.144 3.944 12.8427 5.65067 12.032 9.064C13.568 8.936 14.8587 8.50933 15.904 7.784C16.9707 7.03733 17.504 6.29067 17.504 5.544C17.504 4.47733 16.9813 3.944 15.936 3.944ZM3.424 22.152C3.44533 22.7493 3.86133 23.048 4.672 23.048C5.48267 23.048 5.99467 22.5787 6.208 21.64C5.61067 21.3413 5.12 21.192 4.736 21.192C3.88267 21.192 3.44533 21.512 3.424 22.152ZM38.8095 17.448C39.1935 17.448 39.3855 17.9387 39.3855 18.92C39.3855 19.4533 39.1615 20.104 38.7135 20.872C38.2655 21.6187 37.6788 22.312 36.9535 22.952C36.2495 23.5707 35.4602 24.0827 34.5855 24.488C33.7108 24.8933 32.8575 25.096 32.0255 25.096C30.8948 25.096 30.1375 24.104 29.7535 22.12C29.1988 23.0373 28.4735 23.7947 27.5775 24.392C26.6815 24.968 25.4762 25.256 23.9615 25.256C22.4682 25.256 21.2628 24.7867 20.3455 23.848C19.4282 22.9093 18.9802 21.768 19.0015 20.424C19.0015 16.7973 20.2068 13.9387 22.6175 11.848C23.6415 10.9733 24.5908 10.3973 25.4655 10.12C26.3615 9.84267 27.3002 9.704 28.2815 9.704C29.2628 9.704 30.0628 9.87467 30.6815 10.216C30.9802 9.59733 31.3215 9.288 31.7055 9.288C32.4522 9.288 33.1562 9.61867 33.8175 10.28C34.5002 10.92 34.8415 11.528 34.8415 12.104C34.5428 12.808 34.1055 13.6507 33.5295 14.632C33.3588 15.6133 33.2735 16.9893 33.2735 18.76C33.2735 20.5307 33.4975 21.416 33.9455 21.416C34.5002 21.416 35.8442 20.3067 37.9775 18.088C38.3615 17.6613 38.6388 17.448 38.8095 17.448ZM23.7055 19.368C23.7055 21.0107 24.3135 21.832 25.5295 21.832C26.8308 21.8107 27.9082 21.1173 28.7615 19.752C29.0602 19.2827 29.3055 18.7067 29.4975 18.024C29.4975 15.6347 29.7108 13.5867 30.1375 11.88C28.4095 12.2213 26.9055 13.0533 25.6255 14.376C24.3455 15.6987 23.7055 17.3627 23.7055 19.368ZM38.4585 23.272C38.2238 22.696 38.0532 22.0347 37.9465 21.288C37.8398 20.52 37.7865 19.4533 37.7865 18.088C37.7865 16.7227 38.0425 14.8773 38.5545 12.552H37.1145C36.8585 12.552 36.7305 12.4453 36.7305 12.232C36.7305 11.72 36.7732 11.304 36.8585 10.984C36.9652 10.6427 37.1998 10.2587 37.5625 9.832H38.3305C38.6292 9.832 38.9492 9.82133 39.2905 9.8C40.3145 6.51467 41.3598 4.872 42.4265 4.872C43.2798 4.89333 43.8772 5.43733 44.2185 6.504C44.3038 6.80267 44.3998 7.12267 44.5065 7.464L43.1945 9.768C44.6878 9.81067 45.6265 9.832 46.0105 9.832C46.4158 9.832 46.6292 9.87467 46.6505 9.96C46.6932 10.024 46.7145 10.1307 46.7145 10.28C46.7145 10.664 46.6185 11.144 46.4265 11.72C46.2558 12.296 46.0532 12.5733 45.8185 12.552L42.6185 12.392C42.1705 14.9947 41.9465 17.1493 41.9465 18.856C41.9465 20.5627 42.1918 21.416 42.6825 21.416C43.0878 21.416 43.8238 21.0853 44.8905 20.424C45.9572 19.7413 46.7252 19.0907 47.1945 18.472C47.6638 17.8533 48.0478 17.544 48.3465 17.544C48.6452 17.544 48.7945 17.9067 48.7945 18.632C48.7945 19.3573 48.5385 20.104 48.0265 20.872C47.5145 21.6187 46.8638 22.312 46.0745 22.952C45.3065 23.5707 44.4425 24.0827 43.4825 24.488C42.5438 24.8933 41.7225 25.096 41.0185 25.096C40.3145 25.096 39.7705 24.936 39.3865 24.616C39.0238 24.2747 38.7145 23.8267 38.4585 23.272ZM66.1188 17.448C66.5028 17.448 66.6948 17.9387 66.6948 18.92C66.6948 19.4533 66.4708 20.104 66.0228 20.872C65.5748 21.6187 64.9881 22.312 64.2628 22.952C63.5588 23.5707 62.7694 24.0827 61.8948 24.488C61.0201 24.8933 60.1668 25.096 59.3348 25.096C58.2041 25.096 57.4468 24.104 57.0628 22.12C56.5081 23.0373 55.7828 23.7947 54.8868 24.392C53.9908 24.968 52.7854 25.256 51.2708 25.256C49.7774 25.256 48.5721 24.7867 47.6547 23.848C46.7374 22.9093 46.2894 21.768 46.3107 20.424C46.3107 16.7973 47.5161 13.9387 49.9268 11.848C50.9508 10.9733 51.9001 10.3973 52.7748 10.12C53.6708 9.84267 54.6094 9.704 55.5908 9.704C56.5721 9.704 57.3721 9.87467 57.9908 10.216C58.2894 9.59733 58.6308 9.288 59.0148 9.288C59.7614 9.288 60.4654 9.61867 61.1268 10.28C61.8094 10.92 62.1508 11.528 62.1508 12.104C61.8521 12.808 61.4148 13.6507 60.8388 14.632C60.6681 15.6133 60.5828 16.9893 60.5828 18.76C60.5828 20.5307 60.8068 21.416 61.2548 21.416C61.8094 21.416 63.1534 20.3067 65.2868 18.088C65.6708 17.6613 65.9481 17.448 66.1188 17.448ZM51.0148 19.368C51.0148 21.0107 51.6228 21.832 52.8388 21.832C54.1401 21.8107 55.2174 21.1173 56.0708 19.752C56.3694 19.2827 56.6148 18.7067 56.8068 18.024C56.8068 15.6347 57.0201 13.5867 57.4468 11.88C55.7188 12.2213 54.2148 13.0533 52.9348 14.376C51.6548 15.6987 51.0148 17.3627 51.0148 19.368ZM81.8958 15.272C81.8958 14.568 81.4904 14.216 80.6798 14.216C80.1251 14.216 79.5064 14.76 78.8238 15.848C78.1411 16.9147 77.6504 18.0667 77.3518 19.304V19.368C77.3518 20.0933 77.4584 20.84 77.6718 21.608C77.9064 22.376 78.0238 22.9093 78.0238 23.208C78.0238 23.9333 77.1171 24.648 75.3038 25.352C75.0264 25.4587 74.7811 25.512 74.5677 25.512C74.0344 25.512 73.6611 25.2347 73.4478 24.68C73.2558 24.1253 73.1597 23.3787 73.1597 22.44C73.1597 21.48 73.1811 20.584 73.2238 19.752C73.2877 18.8987 73.3411 18.12 73.3837 17.416C73.4478 16.6907 73.5011 16.0613 73.5437 15.528C73.6078 14.9733 73.6398 14.5253 73.6398 14.184C73.6398 13.4587 73.3091 13.096 72.6477 13.096C71.9864 13.096 71.2184 13.8747 70.3438 15.432C69.4691 16.968 69.0318 18.1947 69.0318 19.112C69.0318 20.008 69.1384 20.84 69.3517 21.608C69.5864 22.376 69.7038 22.9093 69.7038 23.208C69.7038 23.9333 68.7971 24.648 66.9837 25.352C66.7064 25.4587 66.4611 25.512 66.2477 25.512C65.7144 25.512 65.3411 25.2347 65.1277 24.68C64.9357 24.1253 64.8397 23.272 64.8397 22.12C64.8397 19.0907 64.9571 16.904 65.1917 15.56C65.5117 13.576 66.2371 11.6987 67.3677 9.928C67.7517 9.33067 68.1677 9.032 68.6157 9.032C69.3197 9.032 69.9704 9.608 70.5677 10.76C70.7384 11.0587 70.8664 11.336 70.9518 11.592C71.9758 10.312 73.1811 9.672 74.5677 9.672C75.4851 9.672 76.3064 9.98133 77.0318 10.6C77.7571 11.1973 78.1198 11.9547 78.1198 12.872V13.224C79.4211 11.6027 81.0104 10.792 82.8878 10.792C84.0398 10.792 84.9144 11.0907 85.5118 11.688C86.1091 12.2853 86.4078 13.0213 86.4078 13.896C86.4078 14.7707 86.3438 15.56 86.2158 16.264C86.0878 16.968 85.9384 17.6293 85.7678 18.248C85.6184 18.8667 85.4798 19.4213 85.3518 19.912C85.2238 20.3813 85.1597 20.7547 85.1597 21.032C85.1597 21.288 85.2451 21.416 85.4158 21.416C85.7358 21.416 86.1304 21.2133 86.5998 20.808C87.0691 20.4027 87.5384 19.9653 88.0078 19.496C88.4771 19.0053 88.9038 18.5573 89.2878 18.152C89.6931 17.7467 89.9704 17.544 90.1198 17.544C90.4184 17.544 90.5678 17.9067 90.5678 18.632C90.5678 20.1253 89.8104 21.576 88.2958 22.984C86.8024 24.392 85.2024 25.096 83.4958 25.096C81.9598 25.096 81.1918 23.6987 81.1918 20.904C81.1918 20.2 81.3091 19.2293 81.5438 17.992C81.7784 16.7547 81.8958 15.848 81.8958 15.272ZM4.672 52.472C3.43467 52.6427 2.41067 52.728 1.6 52.728C1.32267 52.728 1.184 52.6213 1.184 52.408C1.184 51.9173 1.51467 51.4053 2.176 50.872C2.85867 50.3173 3.95733 49.8373 5.472 49.432C6.15467 47 6.93333 44.7707 7.808 42.744C5.67467 42.8507 3.92533 43.5547 2.56 44.856C2.21867 45.1973 1.94133 45.464 1.728 45.656C1.51467 45.848 1.32267 45.944 1.152 45.944C1.00267 45.944 0.853333 45.816 0.704 45.56C0.554667 45.304 0.48 44.9627 0.48 44.536C0.501333 42.8933 1.61067 41.56 3.808 40.536C6.00533 39.512 8.71467 39.0107 11.936 39.032L21.536 39.192C22.112 39.192 22.4 39.416 22.4 39.864C22.4 39.992 22.3147 40.2267 22.144 40.568C21.9733 40.888 21.824 41.24 21.696 41.624C21.4187 42.392 20.8213 42.776 19.904 42.776H18.88L14.624 42.744H12.16C11.9893 43.96 11.4773 45.944 10.624 48.696L16.48 48.792C16.8213 48.792 16.992 48.9947 16.992 49.4C16.992 49.528 16.9387 49.752 16.832 50.072C16.7253 50.392 16.6293 50.7227 16.544 51.064C16.3733 51.768 16.0107 52.12 15.456 52.12L10.592 51.896H10.176C10.048 51.896 9.89867 51.9067 9.728 51.928C8.61867 56.0027 8.064 59.224 8.064 61.592C8.064 62.8507 6.83733 63.48 4.384 63.48C3.85067 63.48 3.53067 63.2133 3.424 62.68C3.33867 62.1253 3.296 61.4 3.296 60.504C3.296 58.584 3.75467 55.9067 4.672 52.472ZM30.1208 60.28C28.4354 62.264 26.4088 63.256 24.0408 63.256C21.6941 63.256 19.9341 62.6587 18.7608 61.464C17.5874 60.248 17.0114 58.744 17.0327 56.952C17.0114 54.4133 17.8114 52.2267 19.4327 50.392C21.0541 48.5573 23.1768 47.64 25.8008 47.64C26.9954 47.64 27.9554 47.7893 28.6808 48.088C29.9394 48.6 30.5688 49.08 30.5688 49.528C30.5688 49.8693 29.6834 50.0507 27.9128 50.072C26.1634 50.072 24.6914 50.68 23.4968 51.896C22.3234 53.0907 21.7368 54.6053 21.7368 56.44C21.7368 57.4 22.0141 58.2107 22.5688 58.872C23.1448 59.512 23.9448 59.832 24.9688 59.832C26.0141 59.832 26.8781 59.6187 27.5608 59.192C26.0461 58.168 25.2888 56.6853 25.2888 54.744C25.2674 53.72 25.6301 52.792 26.3767 51.96C27.1448 51.1067 28.1154 50.68 29.2888 50.68C30.4834 50.6587 31.3368 50.9787 31.8488 51.64C32.3608 52.3013 32.6168 53.1547 32.6168 54.2C32.6168 55.224 32.3714 56.312 31.8808 57.464H32.0728C33.0114 57.4427 33.8221 57.112 34.5048 56.472C34.7608 56.216 34.9741 55.992 35.1448 55.8C35.3368 55.608 35.5288 55.512 35.7208 55.512C36.0194 55.512 36.1688 55.864 36.1688 56.568C36.1688 57.8693 35.7848 58.8507 35.0168 59.512C34.2488 60.152 33.3954 60.472 32.4568 60.472C31.5394 60.472 30.7608 60.408 30.1208 60.28ZM29.8328 56.568C30.1954 55.8 30.3768 55.0533 30.3768 54.328C30.3768 53.6027 30.1421 53.24 29.6728 53.24C29.4808 53.24 29.3208 53.3787 29.1928 53.656C29.0648 53.9333 29.0008 54.2 29.0008 54.456C29.0008 55.3093 29.2781 56.0133 29.8328 56.568ZM46.7598 60.28C45.0744 62.264 43.0478 63.256 40.6798 63.256C38.3331 63.256 36.5731 62.6587 35.3997 61.464C34.2264 60.248 33.6504 58.744 33.6717 56.952C33.6504 54.4133 34.4504 52.2267 36.0717 50.392C37.6931 48.5573 39.8158 47.64 42.4398 47.64C43.6344 47.64 44.5944 47.7893 45.3198 48.088C46.5784 48.6 47.2078 49.08 47.2078 49.528C47.2078 49.8693 46.3224 50.0507 44.5518 50.072C42.8024 50.072 41.3304 50.68 40.1358 51.896C38.9624 53.0907 38.3758 54.6053 38.3758 56.44C38.3758 57.4 38.6531 58.2107 39.2078 58.872C39.7838 59.512 40.5838 59.832 41.6077 59.832C42.6531 59.832 43.5171 59.6187 44.1997 59.192C42.6851 58.168 41.9278 56.6853 41.9278 54.744C41.9064 53.72 42.2691 52.792 43.0157 51.96C43.7838 51.1067 44.7544 50.68 45.9278 50.68C47.1224 50.6587 47.9758 50.9787 48.4878 51.64C48.9998 52.3013 49.2558 53.1547 49.2558 54.2C49.2558 55.224 49.0104 56.312 48.5198 57.464H48.7118C49.6504 57.4427 50.4611 57.112 51.1438 56.472C51.3998 56.216 51.6131 55.992 51.7838 55.8C51.9758 55.608 52.1678 55.512 52.3598 55.512C52.6584 55.512 52.8078 55.864 52.8078 56.568C52.8078 57.8693 52.4238 58.8507 51.6558 59.512C50.8877 60.152 50.0344 60.472 49.0958 60.472C48.1784 60.472 47.3998 60.408 46.7598 60.28ZM46.4718 56.568C46.8344 55.8 47.0158 55.0533 47.0158 54.328C47.0158 53.6027 46.7811 53.24 46.3118 53.24C46.1198 53.24 45.9598 53.3787 45.8318 53.656C45.7038 53.9333 45.6398 54.2 45.6398 54.456C45.6398 55.3093 45.9171 56.0133 46.4718 56.568ZM70.1188 55.448C70.5028 55.448 70.6948 55.9387 70.6948 56.92C70.6948 57.4533 70.4708 58.104 70.0228 58.872C69.5748 59.6187 68.9881 60.312 68.2628 60.952C67.5588 61.5707 66.7694 62.0827 65.8948 62.488C65.0201 62.8933 64.1668 63.096 63.3348 63.096C62.1614 63.096 61.3934 62.136 61.0308 60.216C59.7508 62.2427 57.8521 63.256 55.3348 63.256C53.7988 63.256 52.5721 62.7867 51.6547 61.848C50.7374 60.9093 50.2894 59.768 50.3107 58.424C50.3107 54.7973 51.5161 51.9387 53.9268 49.848C55.5908 48.4187 57.3188 47.704 59.1108 47.704C59.9214 47.704 60.5614 47.768 61.0308 47.896L61.7668 48.088C62.6414 43.9707 63.6548 41.2187 64.8068 39.832C65.1908 39.3627 65.5748 39.128 65.9587 39.128C66.5774 39.128 67.1534 39.5547 67.6868 40.408C68.1561 41.112 68.3908 41.72 68.3908 42.232C68.3908 42.744 68.3161 43.2453 68.1667 43.736C68.0174 44.2267 67.8254 44.6853 67.5907 45.112C67.3774 45.5173 67.1321 45.9227 66.8548 46.328C66.5774 46.712 66.3001 47.1067 66.0228 47.512C65.4041 49.816 64.9454 52.3973 64.6468 55.256C64.5614 56.0667 64.5188 56.7173 64.5188 57.208C64.5188 58.68 64.7641 59.416 65.2548 59.416C65.8094 59.416 67.1534 58.3067 69.2868 56.088C69.6708 55.6613 69.9481 55.448 70.1188 55.448ZM55.0148 57.368C55.0148 59.0107 55.6228 59.832 56.8388 59.832C57.5641 59.832 58.2894 59.5547 59.0148 59C59.7614 58.4453 60.3374 57.5173 60.7428 56.216C60.7854 54.296 61.0094 52.184 61.4148 49.88C59.7081 50.2213 58.2148 51.0533 56.9348 52.376C55.6548 53.6987 55.0148 55.3627 55.0148 57.368Z" fill="#F78E1E"/>
</svg>
